<svg width="166" height="166" viewBox="0 0 166 166" fill="none" xmlns="http://www.w3.org/2000/svg">
<path fill-rule="evenodd" clip-rule="evenodd" d="M 40.425 126.047 L 40.425 88.144 L 5.94 36.569 L 20.345 36.569 L 37.984 63.547 Q 42.866 71.115 47.078 78.684 Q 51.106 71.665 56.844 62.876 L 74.178 36.569 L 87.971 36.569 L 52.266 88.144 L 52.266 126.047 Z M 120.459 90.952 L 120.459 80.454 L 158.362 80.393 L 158.362 113.596 Q 149.634 120.554 140.356 124.063 Q 131.079 127.573 121.314 127.573 Q 108.13 127.573 97.357 121.927 Q 86.585 116.281 81.091 105.6 Q 75.598 94.919 75.598 81.735 Q 75.598 68.674 81.061 57.352 Q 86.523 46.03 96.777 40.537 Q 107.031 35.044 120.398 35.044 Q 130.103 35.044 137.946 38.187 Q 145.789 41.33 150.244 46.945 Q 154.7 52.561 157.019 61.594 L 146.338 64.524 Q 144.324 57.688 141.333 53.781 Q 138.342 49.875 132.788 47.525 Q 127.234 45.175 120.459 45.175 Q 112.341 45.175 106.421 47.647 Q 100.501 50.119 96.869 54.148 Q 93.237 58.176 91.223 62.998 Q 87.805 71.298 87.805 81.003 Q 87.805 92.966 91.925 101.023 Q 96.045 109.079 103.919 112.985 Q 111.792 116.892 120.642 116.892 Q 128.333 116.892 135.657 113.932 Q 142.981 110.971 146.765 107.614 L 146.765 90.952 Z" fill="#FF2D20"/>
</svg>
